<svg version="1.2" xmlns="http://www.w3.org/2000/svg" viewBox="0 0 1134 1134" width="1134" height="1134">
	<title>Document from alaa Hammad-ai</title>
	<defs>
		<linearGradient id="g1" x1="384.6" y1="524.1" x2="514.5" y2="522.4" gradientUnits="userSpaceOnUse">
			<stop offset="0" stop-color="#1055a2"/>
			<stop offset="1" stop-color="#fefefe" stop-opacity="0"/>
		</linearGradient>
		<linearGradient id="g2" x1="340.2" y1="314.1" x2="750.8" y2="314.1" gradientUnits="userSpaceOnUse">
			<stop offset="0" stop-color="#2889a4"/>
			<stop offset="1" stop-color="#22469d"/>
		</linearGradient>
		<linearGradient id="g3" x1="643.1" y1="308.4" x2="793.5" y2="316.3" gradientUnits="userSpaceOnUse">
			<stop offset="0" stop-color="#38a296"/>
			<stop offset="1" stop-color="#fefefe" stop-opacity="0"/>
		</linearGradient>
		<linearGradient id="g4" x1="340.2" y1="314.1" x2="722.1" y2="314.1" gradientUnits="userSpaceOnUse">
			<stop offset="0" stop-color="#2889a4"/>
			<stop offset="1" stop-color="#22469d"/>
		</linearGradient>
		<linearGradient id="g5" x1="446.5" y1="313.7" x2="579.8" y2="310.6" gradientUnits="userSpaceOnUse">
			<stop offset="0" stop-color="#38a296"/>
			<stop offset="1" stop-color="#fefefe" stop-opacity="0"/>
		</linearGradient>
		<linearGradient id="g6" x1="250.1" y1="628.3" x2="419.5" y2="328.2" gradientUnits="userSpaceOnUse">
			<stop offset="0" stop-color="#2889a4"/>
			<stop offset="1" stop-color="#22469d"/>
		</linearGradient>
		<linearGradient id="g7" x1="918.5" y1="458.4" x2="503.2" y2="795.6" gradientUnits="userSpaceOnUse">
			<stop offset="0" stop-color="#22c1ed"/>
			<stop offset="1" stop-color="#3767a5"/>
		</linearGradient>
		<linearGradient id="g8" x1="755.5" y1="394.8" x2="754.2" y2="545.3" gradientUnits="userSpaceOnUse">
			<stop offset="0" stop-color="#1055a2"/>
			<stop offset="1" stop-color="#fefefe" stop-opacity="0"/>
		</linearGradient>
		<linearGradient id="g9" x1="849.2" y1="329.8" x2="812.2" y2="379.7" gradientUnits="userSpaceOnUse">
			<stop offset="0" stop-color="#fefefe"/>
			<stop offset="1" stop-color="#fefefe" stop-opacity="0"/>
		</linearGradient>
	</defs>
	<style>
		.s0 { fill: #1c8ecf } 
		.s1 { fill: #1f5698 } 
		.s2 { mix-blend-mode: multiply;fill: url(#g1) } 
		.s3 { fill: url(#g2) } 
		.s4 { mix-blend-mode: multiply;fill: url(#g3) } 
		.s5 { fill: url(#g4) } 
		.s6 { mix-blend-mode: multiply;fill: url(#g5) } 
		.s7 { fill: url(#g6) } 
		.s8 { fill: url(#g7) } 
		.s9 { mix-blend-mode: multiply;fill: url(#g8) } 
		.s10 { opacity: .7;mix-blend-mode: overlay;fill: url(#g9) } 
		.s11 { fill: #fefefe } 
	</style>
	<g id="Layer 1">
		<g id="&lt;Group&gt;">
			<path id="&lt;Compound Path&gt;" class="s0" d="m279.1 701.8q-1.4 1.3-1.4 3.4 0 2.2 1.7 3.4 1.7 1.3 7.9 3 6.2 1.7 9.7 5.1 3.4 3.5 3.4 10 0 6.6-4.4 10.7-4.4 4-11.6 4-10.3 0-18.6-8.5l5.8-8q7 6.9 13 6.9 2.7 0 4.2-1.3 1.6-1.3 1.6-3.5 0-2.2-1.7-3.5-1.6-1.3-6.4-2.6-7.6-2-11.1-5.3-3.6-3.2-3.6-10.1 0-7 4.5-10.8 4.5-3.7 11.1-3.7 4.4 0 8.8 1.6 4.3 1.7 7.6 4.8l-4.9 8q-5.7-4.9-11.8-4.9-2.4 0-3.8 1.3z"/>
			<path id="&lt;Compound Path&gt;" class="s0" d="m335.8 692.1h9.7v48.8h-9.7v-19.2h-17.4v19.2h-9.7v-48.8h9.7v20.4h17.4z"/>
			<path id="&lt;Compound Path&gt;" fill-rule="evenodd" class="s0" d="m387.4 740.9l-4.1-10.6h-18.3l-4 10.6h-10.4l18.8-48.8h9.5l18.8 48.8zm-13.1-34.3l-5.5 14.2h10.9z"/>
			<path id="&lt;Compound Path&gt;" class="s0" d="m441.9 710.2l-11.8 26.6h-5.8l-11.8-26.6v30.7h-9.7v-48.8h13.2l11.2 26.8 11.3-26.8h13.1v48.8h-9.7z"/>
			<path id="&lt;Compound Path&gt;" class="s0" d="m462.3 692.1h9.8v48.8h-9.8z"/>
			<path id="&lt;Compound Path&gt;" class="s0" d="m482.8 740.9v-48.8h9.8v39.1h18.6v9.7z"/>
			<path id="&lt;Compound Path&gt;" class="s0" d="m573.8 710.2l-11.8 26.6h-5.8l-11.7-26.6v30.7h-9.7v-48.8h13.1l11.3 26.8 11.3-26.8h13.1v48.8h-9.8z"/>
			<path id="&lt;Compound Path&gt;" fill-rule="evenodd" class="s0" d="m625.4 740.9l-4.1-10.6h-18.3l-4 10.6h-10.4l18.9-48.8h9.4l18.9 48.8zm-13.2-34.3l-5.5 14.2h10.9z"/>
			<path id="&lt;Compound Path&gt;" fill-rule="evenodd" class="s0" d="m676.2 708.3q0 11.7-8.3 15.1l11.1 17.5h-12l-9.7-15.6h-6.7v15.6h-9.8v-48.8h16.6q10.1 0 14.5 3.8 4.3 3.9 4.3 12.4zm-11.7 5.8q1.8-1.8 1.8-5.8 0-3.9-1.9-5.4-1.9-1.5-6.5-1.5h-7.3v14.5h7.1q5 0 6.8-1.8z"/>
			<path id="&lt;Compound Path&gt;" class="s0" d="m686.2 692.1h9.7v20l16.5-20h12.1l-17.4 21.6q2.3 3.5 8.3 13 6.1 9.5 9.1 14.2h-11.4l-12.8-19.3-4.4 5.5v13.8h-9.7z"/>
			<path id="&lt;Compound Path&gt;" class="s0" d="m762 692.1v9.7h-21.7v10h19.5v9.3h-19.5v10.2h22.4v9.6h-32.2v-48.8z"/>
			<path id="&lt;Compound Path&gt;" class="s0" d="m789.8 701.5v39.4h-9.7v-39.4h-12.4v-9.4h34.5v9.4z"/>
			<path id="&lt;Compound Path&gt;" class="s0" d="m809.3 692.1h9.7v48.8h-9.7z"/>
			<path id="&lt;Compound Path&gt;" class="s0" d="m860.3 692.1h9.7v48.8h-9.7l-20.8-30.6v30.6h-9.7v-48.8h9.1l21.4 31.4z"/>
			<path id="&lt;Compound Path&gt;" class="s0" d="m909.1 716h9.8v17.3q-6.5 8.1-18 8.1-9.6 0-16.1-7.1-6.5-7.1-6.5-18 0-10.8 6.6-18.1 6.7-7.2 16.1-7.2 9.4 0 16.3 6.9l-5.1 8.2q-2.9-2.9-5.4-4-2.4-1.1-5.3-1.1-5.6 0-9.4 4.2-3.8 4.3-3.8 11.2 0 6.9 3.7 11 3.6 4.2 8.7 4.2 5 0 8.4-2.2z"/>
		</g>
		<g id="&lt;Group&gt;">
			<path id="&lt;Compound Path&gt;" class="s1" d="m436 774.1l3.6-7.7h3.8l-5.6 10.9v6.2h-3.6v-6.2l-5.6-10.9h3.8z"/>
			<path id="&lt;Compound Path&gt;" fill-rule="evenodd" class="s1" d="m461.2 775.3q0 2.6-0.9 4.5-0.9 1.9-2.6 2.9-1.7 1.1-3.8 1.1-2.1 0-3.8-1.1-1.7-1-2.6-2.9-0.9-1.9-1-4.4v-0.8q0-2.5 1-4.5 0.9-1.9 2.5-2.9 1.7-1.1 3.9-1.1 2.1 0 3.8 1.1 1.6 1 2.6 2.9 0.9 2 0.9 4.5zm-3.6-0.8q0-2.7-1-4.1-0.9-1.4-2.7-1.4-1.8 0-2.8 1.4-1 1.4-1 4v0.9q0 2.6 1 4.1 1 1.4 2.8 1.4 1.8 0 2.7-1.4 1-1.4 1-4.1z"/>
			<path id="&lt;Compound Path&gt;" class="s1" d="m479.2 766.4v11.3q0 2.8-1.8 4.4-1.8 1.7-4.8 1.7-3 0-4.8-1.6-1.8-1.6-1.8-4.4v-11.4h3.5v11.3q0 1.7 0.8 2.5 0.8 0.7 2.3 0.7 3 0 3-3.1v-11.4z"/>
			<path id="&lt;Compound Path&gt;" fill-rule="evenodd" class="s1" d="m490.8 777.3h-2.8v6.2h-3.5v-17.1h6.4q3 0 4.6 1.3 1.7 1.4 1.7 3.9 0 1.7-0.8 2.9-0.7 1.2-2.3 1.9l3.7 7v0.1h-3.7zm-2.9-2.8h2.9q1.3 0 2.1-0.7 0.7-0.7 0.7-1.9 0-1.2-0.7-1.9-0.7-0.7-2.1-0.7h-2.9z"/>
			<path id="&lt;Compound Path&gt;" fill-rule="evenodd" class="s1" d="m520.4 780h-6.2l-1.2 3.5h-3.7l6.4-17.1h3.3l6.4 17.1h-3.8zm-5.2-2.8h4.3l-2.2-6.5z"/>
			<path id="&lt;Compound Path&gt;" class="s1" d="m542.2 766.4v11.3q0 2.8-1.8 4.4-1.7 1.7-4.8 1.7-3 0-4.8-1.6-1.7-1.6-1.8-4.4v-11.4h3.6v11.3q0 1.7 0.8 2.5 0.8 0.7 2.2 0.7 3 0 3.1-3.1v-11.4z"/>
			<path id="&lt;Compound Path&gt;" fill-rule="evenodd" class="s1" d="m547.5 783.5v-17.1h5.3q2.3 0 4.1 1 1.7 1 2.7 2.9 1 1.9 1 4.3v0.8q0 2.3-0.9 4.2-1 1.9-2.8 2.9-1.8 1-4.1 1zm3.6-14.3v11.5h1.7q2.1 0 3.2-1.4 1.1-1.3 1.1-3.8v-0.9q0-2.7-1.1-4-1.1-1.4-3.2-1.4z"/>
			<path id="&lt;Compound Path&gt;" class="s1" d="m569.4 783.5h-3.5v-17.1h3.5z"/>
			<path id="&lt;Compound Path&gt;" class="s1" d="m585.4 776.1h-6.8v4.6h8v2.8h-11.5v-17.1h11.5v2.8h-8v4.1h6.8z"/>
			<path id="&lt;Compound Path&gt;" class="s1" d="m605.1 783.5h-3.6l-6.9-11.3v11.3h-3.5v-17.1h3.5l6.9 11.3v-11.3h3.6z"/>
			<path id="&lt;Compound Path&gt;" class="s1" d="m624 777.8q-0.2 2.8-2 4.4-1.9 1.6-4.9 1.6-3.3 0-5.2-2.2-1.9-2.3-1.9-6.2v-1q0-2.5 0.9-4.4 0.9-1.9 2.5-2.9 1.6-1 3.8-1 3 0 4.8 1.6 1.8 1.6 2.1 4.5h-3.6q-0.1-1.7-0.9-2.4-0.8-0.8-2.4-0.8-1.8 0-2.7 1.3-0.8 1.3-0.9 3.9v1.3q0 2.8 0.9 4.1 0.8 1.3 2.6 1.3 1.7 0 2.5-0.8 0.8-0.7 0.9-2.3z"/>
			<path id="&lt;Compound Path&gt;" class="s1" d="m639.1 776.1h-6.8v4.6h8v2.8h-11.5v-17.1h11.5v2.8h-8v4.1h6.8z"/>
			<path id="&lt;Compound Path&gt;" class="s1" d="m657 783.5h-3.6v-17.1h3.6z"/>
			<path id="&lt;Compound Path&gt;" class="s1" d="m671.6 779q0-1-0.7-1.5-0.7-0.5-2.6-1.1-1.8-0.6-2.9-1.2-2.9-1.6-2.9-4.3 0-1.4 0.8-2.5 0.8-1 2.2-1.7 1.5-0.6 3.3-0.6 1.9 0 3.3 0.7 1.4 0.7 2.2 1.9 0.8 1.2 0.8 2.7h-3.5q0-1.1-0.8-1.8-0.7-0.7-2-0.7-1.3 0-2.1 0.6-0.7 0.5-0.7 1.4 0 0.9 0.9 1.4 0.8 0.6 2.4 1.1 3.1 0.9 4.4 2.3 1.4 1.3 1.4 3.3 0 2.2-1.7 3.5-1.6 1.3-4.5 1.3-2 0-3.6-0.8-1.6-0.7-2.5-1.9-0.8-1.3-0.8-3h3.5q0 2.9 3.4 2.9 1.3 0 2-0.5 0.7-0.5 0.7-1.5z"/>
			<path id="&lt;Compound Path&gt;" class="s1" d="m702.3 783.5h-3.5v-7.3h-6.9v7.3h-3.5v-17.1h3.5v6.9h6.9v-6.9h3.5z"/>
			<path id="&lt;Compound Path&gt;" class="s1" d="m718.2 776.1h-6.8v4.6h8v2.8h-11.6v-17.1h11.5v2.8h-7.9v4.1h6.8z"/>
			<path id="&lt;Compound Path&gt;" fill-rule="evenodd" class="s1" d="m730.2 777.3h-2.8v6.2h-3.5v-17.1h6.3q3.1 0 4.7 1.3 1.7 1.4 1.7 3.9 0 1.7-0.8 2.9-0.7 1.2-2.3 1.9l3.7 7v0.1h-3.8zm-2.8-2.8h2.9q1.3 0 2-0.7 0.8-0.7 0.8-1.9 0-1.2-0.7-1.9-0.7-0.7-2.1-0.7h-2.9z"/>
			<path id="&lt;Compound Path&gt;" class="s1" d="m752 776.1h-6.8v4.6h8v2.8h-11.5v-17.1h11.5v2.8h-8v4.1h6.8z"/>
		</g>
		<path id="&lt;Path&gt;" class="s2" d="m652.3 605.1c-25.4 40-122.7 34.8-197.5 36.6-39.3 1-106.2 0-106.2 0l11.7-72h240.7q15.5 0 24.7-6.7 9.1-6.7 9.1-18.2c0-6.6-2.5-13.2-7.6-19.8 0 0 52.8 36.5 25.1 80.1z"/>
		<g id="&lt;Group&gt;">
			<path id="&lt;Path&gt;" class="s3" d="m659.2 452.4l-92.4 197.8h-73.6l-4.5-193.6-54.9 193.6h-93.6l89.6-332.1h127.2l1 175.2 66.2-175.2h126.6l-24.5 251.1h-88.3z"/>
			<path id="&lt;Path&gt;" class="s4" d="m659.2 452.4l-92.4 197.8h-73.6l-4.5-193.6-54.9 193.6h-93.6l89.6-332.1h127.2l1 175.2 66.2-175.2h126.6l-24.5 251.1h-88.3z"/>
			<path id="&lt;Compound Path&gt;" class="s5" d="m722.1 318.1l-155.3 332.1h-73.6l-4.5-193.6-54.9 193.6h-93.6l89.6-332.1h127.2l1 175.1 66.2-175.1z"/>
			<path id="&lt;Compound Path&gt;" class="s6" d="m722.1 318.1l-155.3 332.1h-73.6l-4.5-193.6-54.9 193.6h-93.6l89.6-332.1h127.2l1 175.2 66.2-175.2z"/>
			<path id="&lt;Path&gt;" class="s7" d="m523.5 318.1l-34.8 138.5-54.9 193.6h-93.6l89.6-332.1z"/>
		</g>
		<path id="&lt;Path&gt;" class="s8" d="m845.3 351.9l-88.1 62.1c-1 0.7-2.4 0-2.4-1.2v-19.5c0-2.9-2.3-5.3-5.2-5.4-18.4-0.6-46.9-2.1-54.9-2.1q-13.5 0-21.3 6c-5.2 4-7.8 9.4-7.8 16.3 0 9.4 10 22.4 29.9 39.3l5.8 5c20.1 16.8 33.4 31.3 39.7 43.3q9.5 18.1 9.5 41.8 0 52.8-38.2 83.2c-25.5 20.4-60.4 30.5-104.6 30.5h-225.3c-27.1 0-45.3 0-45.3 0l18.4-81.9q0 0 0.3 0h250.3q16.1 0 25.7-7.6 9.4-7.6 9.4-20.6c0-7.5-2.6-15.1-7.9-22.5q-7.9-11.1-30.6-29.7c-18.4-15.1-31-28.6-37.9-40.1-6.8-11.6-10.3-24.4-10.3-38.4 0-31.5 11.7-56.4 35-74.9q12.8-10.1 28.8-16.5 28.1-11.3 66.4-11.3h64.6c3.1 0 5.5-2.5 5.5-5.5v-20.1c0-1.2 1.4-1.9 2.4-1.2l88.1 62.1c3.1 2.2 3.1 6.8 0 8.9z"/>
		<path id="&lt;Path&gt;" class="s9" d="m749.9 538.5q0 52.8-38.2 83.3c-25.5 20.3-60.4 30.4-104.7 30.4h-46.3c14.5-26 27.3-54 35.2-81.9h9.5q16.2 0 25.7-7.6 9.5-7.5 9.5-20.6c0-7.5-2.6-15-7.9-22.5q-7.9-11.1-30.7-29.7c-23-117.2 92.1-103.1 92.1-103.1q-13.5 0-21.3 6c-5.3 4-7.9 9.4-7.9 16.3 0 9.4 10 22.5 29.9 39.3l5.9 5c20.1 16.8 33.3 31.3 39.7 43.3q9.5 18.1 9.5 41.8z"/>
		<path id="&lt;Path&gt;" class="s10" d="m842.7 346.2c-86.1 16.4-159-35-159-35h64c3 0 5.5-2.4 5.5-5.4v-19.8c0-1.2 1.3-1.9 2.3-1.2z"/>
		<path id="&lt;Path&gt;" class="s11" d="m340.4 656.5l-7.9-2 48.7-195.9 8 2z"/>
	</g>
</svg>